<svg width="64" height="64" viewBox="0 0 64 64" fill="none" xmlns="http://www.w3.org/2000/svg">
<g filter="url(#filter0_d_1628:3671)">
<rect x="12" y="8" width="40" height="40" rx="8" fill="url(#paint0_linear_1628:3671)" shape-rendering="crispEdges"/>
<path d="M42 27.05C42 26.94 42 26.83 42 26.72L41.91 26.12L41.82 25.73C41.82 25.56 41.74 25.39 41.69 25.22C41.64 25.05 41.61 24.95 41.56 24.82C41.5321 24.7414 41.5087 24.6613 41.49 24.58C41.49 24.58 41.49 24.58 41.49 24.53C40.9836 23.183 40.1953 21.9598 39.1777 20.9423C38.1602 19.9247 36.937 19.1364 35.59 18.63C35.59 18.63 35.59 18.63 35.54 18.63L35.31 18.56L34.89 18.43C34.74 18.43 34.58 18.35 34.43 18.31L33.97 18.21L33.51 18.14C33.35 18.14 33.2 18.14 33.03 18.08C32.86 18.02 32.68 18.08 32.51 18.08L32 18H31.61C31.44 18 31.26 18 31.09 18C30.92 18 30.77 18 30.61 18.06L30.15 18.13L29.69 18.23C29.54 18.23 29.38 18.3 29.23 18.35L28.81 18.48L28.58 18.55C28.58 18.55 28.58 18.55 28.53 18.55C27.183 19.0564 25.9598 19.8447 24.9423 20.8623C23.9247 21.8798 23.1364 23.103 22.63 24.45C22.63 24.45 22.63 24.45 22.63 24.5C22.6113 24.5813 22.5879 24.6614 22.56 24.74C22.56 24.87 22.47 25 22.43 25.14C22.39 25.28 22.34 25.48 22.3 25.65L22.21 26.04L22.12 26.64C22.12 26.75 22.12 26.86 22.12 26.97C22.12 27.28 22.12 27.6 22.12 27.92C22.12 28.24 22.12 28.56 22.12 28.87C22.12 28.98 22.12 29.09 22.12 29.2L22.21 29.8L22.3 30.19C22.3 30.36 22.38 30.53 22.43 30.7C22.48 30.87 22.51 30.97 22.56 31.1C22.5879 31.1786 22.6113 31.2587 22.63 31.34C22.6319 31.3633 22.6319 31.3867 22.63 31.41C23.132 32.7556 23.9179 33.9772 24.9342 34.9919C25.9506 36.0065 27.1736 36.7903 28.52 37.29C28.52 37.29 28.52 37.29 28.57 37.29L28.81 37.36L29.21 37.49L29.72 37.62L30.11 37.71L30.71 37.8H31.04C31.35 37.8 31.67 37.85 31.99 37.85C32.31 37.85 32.63 37.85 32.94 37.8H33.27L33.87 37.71L34.26 37.62L34.77 37.49L35.17 37.36L35.41 37.29C35.41 37.29 35.41 37.29 35.46 37.29C36.8064 36.7903 38.0294 36.0065 39.0458 34.9919C40.0621 33.9772 40.848 32.7556 41.35 31.41C41.3481 31.3867 41.3481 31.3633 41.35 31.34C41.35 31.26 41.4 31.18 41.42 31.1C41.44 31.02 41.51 30.84 41.55 30.7C41.59 30.56 41.64 30.36 41.68 30.19L41.77 29.8L41.86 29.2C41.86 29.09 41.86 28.98 41.86 28.87C41.86 28.56 41.91 28.24 41.91 27.92C41.91 27.6 42 27.36 42 27.05ZM35.7 20.89C37.1864 21.6537 38.3963 22.8636 39.16 24.35L36.3 25.35C35.8854 24.6855 35.3245 24.1246 34.66 23.71L35.7 20.89ZM30.34 20.19C30.55 20.14 30.75 20.11 30.95 20.08H31.19C31.7618 20.02 32.3382 20.02 32.91 20.08H33.15C33.35 20.08 33.55 20.14 33.76 20.19H33.82L32.82 23.05C32.5488 23.0083 32.2743 22.9916 32 23C31.7554 22.9997 31.5112 23.0197 31.27 23.06L30.27 20.2L30.34 20.19ZM28.4 20.89L29.4 23.75C28.7319 24.1634 28.1674 24.7244 27.75 25.39L24.89 24.39C25.6469 22.8887 26.8575 21.6641 28.35 20.89H28.4ZM24.19 29.71C24.1421 29.5127 24.1087 29.3122 24.09 29.11C24.09 29.02 24.09 28.94 24.09 28.86C24.0233 28.2886 24.0233 27.7114 24.09 27.14C24.09 27.06 24.09 26.98 24.09 26.89C24.1087 26.6878 24.1421 26.4873 24.19 26.29C24.19 26.29 24.19 26.29 24.19 26.23L27.05 27.23C26.97 27.7134 26.97 28.2066 27.05 28.69L24.19 29.69C24.19 29.69 24.19 29.73 24.19 29.71ZM28.35 35.11C26.8636 34.3463 25.6536 33.1364 24.89 31.65L27.75 30.65C28.1646 31.3145 28.7255 31.8754 29.39 32.29L28.35 35.11ZM33.71 35.81C33.5 35.86 33.3 35.89 33.1 35.92H32.86C32.2882 35.98 31.7118 35.98 31.14 35.92H30.9C30.7 35.92 30.5 35.86 30.29 35.81H30.23L31.23 32.95C31.7134 33.03 32.2066 33.03 32.69 32.95L33.69 35.81H33.71ZM33.04 30.81C32.87 30.87 32.7 30.91 32.54 30.95C32.2095 31.0116 31.8705 31.0116 31.54 30.95C31.38 30.95 31.21 30.87 31.04 30.81C30.6179 30.6643 30.2337 30.4261 29.9154 30.113C29.5971 29.7999 29.3527 29.4196 29.2 29V29C29.1395 28.8341 29.0926 28.6635 29.06 28.49C28.996 28.1597 28.996 27.8203 29.06 27.49C29.0904 27.3235 29.1339 27.1597 29.19 27C29.3408 26.5853 29.5811 26.209 29.894 25.8979C30.2069 25.5868 30.5845 25.3485 31 25.2V25.2C31.17 25.14 31.34 25.1 31.5 25.06C31.8305 24.9984 32.1695 24.9984 32.5 25.06C32.66 25.06 32.83 25.14 33 25.2C33.4136 25.3497 33.7893 25.5886 34.1004 25.8996C34.4114 26.2107 34.6503 26.5863 34.8 27V27C34.8605 27.1659 34.9073 27.3365 34.94 27.51C35.0039 27.8403 35.0039 28.1797 34.94 28.51C34.9073 28.6835 34.8605 28.8541 34.8 29.02C34.6478 29.43 34.4079 29.8017 34.0969 30.1092C33.786 30.4166 33.4116 30.6524 33 30.8L33.04 30.81ZM35.65 35.12L34.65 32.26C35.3145 31.8454 35.8754 31.2845 36.29 30.62L39.15 31.62C38.381 33.1236 37.1558 34.3453 35.65 35.11V35.12ZM40 28.86C40 28.94 40 29.02 40 29.11C39.9813 29.3122 39.9479 29.5127 39.9 29.71C39.9 29.71 39.9 29.71 39.9 29.77L37.04 28.77C37.12 28.2866 37.12 27.7934 37.04 27.31L39.9 26.31C39.9 26.31 39.9 26.31 39.9 26.37C39.9479 26.5673 39.9813 26.7678 40 26.97C40 27.06 40 27.14 40 27.22C40.0667 27.7914 40.0667 28.3686 40 28.94V28.86Z" fill="black"/>
</g>
<defs>
<filter id="filter0_d_1628:3671" x="0" y="0" width="64" height="64" filterUnits="userSpaceOnUse" color-interpolation-filters="sRGB">
<feFlood flood-opacity="0" result="BackgroundImageFix"/>
<feColorMatrix in="SourceAlpha" type="matrix" values="0 0 0 0 0 0 0 0 0 0 0 0 0 0 0 0 0 0 127 0" result="hardAlpha"/>
<feOffset dy="4"/>
<feGaussianBlur stdDeviation="6"/>
<feComposite in2="hardAlpha" operator="out"/>
<feColorMatrix type="matrix" values="0 0 0 0 0.74902 0 0 0 0 0.823529 0 0 0 0 0 0 0 0 0.25 0"/>
<feBlend mode="normal" in2="BackgroundImageFix" result="effect1_dropShadow_1628:3671"/>
<feBlend mode="normal" in="SourceGraphic" in2="effect1_dropShadow_1628:3671" result="shape"/>
</filter>
<linearGradient id="paint0_linear_1628:3671" x1="32" y1="2.5" x2="32" y2="48" gradientUnits="userSpaceOnUse">
<stop stop-color="#BFD200"/>
<stop offset="1" stop-color="#BFD200" stop-opacity="0.83"/>
</linearGradient>
</defs>
</svg>
